<?xml version="1.0" encoding="UTF-8"?>
<svg version="1.1" xmlns="http://www.w3.org/2000/svg" width="1024" height="1024">
<path d="M0 0 C337.92 0 675.84 0 1024 0 C1024 337.92 1024 675.84 1024 1024 C686.08 1024 348.16 1024 0 1024 C0 686.08 0 348.16 0 0 Z " fill="#7FC4FE" transform="translate(0,0)"/>
<path d="M0 0 C337.92 0 675.84 0 1024 0 C1024 337.92 1024 675.84 1024 1024 C686.08 1024 348.16 1024 0 1024 C0 686.08 0 348.16 0 0 Z M174.1484375 193.03515625 C167.71895568 200.43005562 162.73204544 208.46251293 158 217 C157.44441406 217.98613281 156.88882813 218.97226563 156.31640625 219.98828125 C142.92516748 245.13598418 140.67895519 273.68063936 140.73257446 301.64881897 C140.72882626 303.54012256 140.72422014 305.43142462 140.71884382 307.32272428 C140.70674309 312.45875127 140.70685879 317.5947125 140.70923257 322.73075044 C140.70964404 328.29403114 140.6985704 333.85729167 140.68911743 339.42056274 C140.67257812 350.29688836 140.66701112 361.17319229 140.66589268 372.04952944 C140.66493892 380.89893804 140.66081238 389.74833954 140.65449142 398.5977459 C140.63975602 419.65923173 140.62743958 440.72071327 140.62848854 461.78220463 C140.6285197 462.45413627 140.62855086 463.12606791 140.62858296 463.81836112 C140.62874915 467.22314572 140.62894722 470.62793031 140.62915237 474.03271491 C140.62921221 475.04682018 140.62921221 475.04682018 140.62927325 476.08141243 C140.62935413 477.44858795 140.62943772 478.81576347 140.62952404 480.182939 C140.63074877 501.44059023 140.61574282 522.69817758 140.58837891 543.95581055 C140.55756923 567.89951149 140.540477 591.84316447 140.54230535 615.78689092 C140.54296688 628.44184522 140.53757871 641.09672746 140.51594925 653.75166512 C140.49764877 664.527029 140.49346249 675.30228814 140.5069681 686.07766093 C140.51345298 691.56361502 140.51377903 697.04936868 140.4962616 702.53530312 C140.41474294 729.75976882 140.38489206 756.82332588 149 783 C149.20850586 783.63373535 149.41701172 784.2674707 149.63183594 784.92041016 C160.86889192 818.41140356 184.12851081 846.59173642 215.81518555 862.59936523 C244.72055461 876.61922778 275.46776814 879.16421883 307.10064697 879.13371277 C308.96888739 879.13558567 310.83712743 879.13788826 312.70536685 879.14057809 C317.79133247 879.14664311 322.87728152 879.14656882 327.96324992 879.14538372 C333.46715591 879.14517836 338.97105677 879.15071117 344.47496033 879.15544128 C355.2393903 879.16371879 366.0038148 879.16649479 376.76824769 879.16705366 C385.52338367 879.16753011 394.27851785 879.16959129 403.03365326 879.17275429 C423.85569368 879.18012288 444.67773303 879.18627999 465.49977493 879.18575573 C466.16435877 879.18574015 466.82894261 879.18572457 467.51366535 879.18570852 C470.88141091 879.18562542 474.24915647 879.18552638 477.61690202 879.18542381 C478.62002214 879.1853939 478.62002214 879.1853939 479.64340732 879.18536337 C480.99577291 879.18532294 482.3481385 879.18528114 483.70050409 879.18523798 C504.73605261 879.18462538 525.771585 879.19213231 546.80712891 879.20581055 C570.48595615 879.22120153 594.16477533 879.22976234 617.84360862 879.22884732 C630.36425494 879.22851613 642.88488307 879.23122951 655.40552521 879.24202538 C666.0647285 879.25115792 676.72390533 879.25328301 687.38311085 879.24651595 C692.81356366 879.24326488 698.24396579 879.24314266 703.67441368 879.2518692 C708.65990442 879.25979785 713.64530484 879.2582387 718.63079354 879.24958507 C720.42001503 879.24806399 722.20924348 879.24981268 723.99845675 879.25544515 C767.79979338 879.38403599 809.86975691 869.94727095 842.26171875 838.76953125 C872.92763091 807.75365148 883.36751706 766.03684669 883.25396729 723.53749084 C883.25627715 721.6299884 883.25945718 719.72248685 883.26342177 717.81498712 C883.27170627 712.62059538 883.26767362 707.42627791 883.26144934 702.23188603 C883.25689963 696.61146953 883.26392106 690.99106526 883.26940918 685.37065125 C883.27827823 674.37861711 883.27639223 663.38661037 883.2705839 652.39457519 C883.26605737 643.45634555 883.26545879 634.51812357 883.26763153 625.57989311 C883.267938 624.30517656 883.26824446 623.03046001 883.26856022 621.71711568 C883.2691997 619.12711092 883.26984813 616.53710616 883.2705054 613.94710141 C883.27603926 590.38057014 883.27031135 566.81405718 883.2598202 543.24752899 C883.25033121 521.76893387 883.2511784 500.29036248 883.26074219 478.81176758 C883.27146953 454.63964795 883.27565108 430.46754518 883.26951766 406.29542249 C883.2688806 403.71492255 883.26825186 401.1344226 883.26763153 398.55392265 C883.26732298 397.28445132 883.26701443 396.01497998 883.26669653 394.70703982 C883.26497388 385.78603927 883.26787542 376.86504717 883.27259064 367.94404793 C883.27821573 357.06297355 883.27664892 346.181928 883.26602915 335.3008569 C883.26079415 329.755338 883.25867844 324.20986708 883.26532745 318.6643486 C883.27133432 313.577239 883.26793454 308.49022136 883.25737235 303.40311997 C883.25515823 301.57357661 883.25622923 299.74402529 883.26112393 297.91448713 C883.30068016 281.88593543 882.22893776 266.18252795 878.375 250.5625 C878.11702637 249.50828857 877.85905273 248.45407715 877.59326172 247.36791992 C872.73156149 228.41015728 863.93683586 208.88039805 851 194 C850.34 194 849.68 194 849 194 C848.76925781 193.44570312 848.53851562 192.89140625 848.30078125 192.3203125 C836.29431335 170.90336977 804.40488013 156.49176984 781.9375 150.05859375 C754.57963926 142.58584475 726.05258709 143.70015383 697.94475496 143.72389162 C692.4047621 143.7263837 686.86478533 143.71731435 681.32479858 143.70985413 C670.50316392 143.69717433 659.68155414 143.69530491 648.8599133 143.69765439 C640.0563501 143.69944491 631.2527944 143.69767228 622.4492321 143.69342995 C621.19136185 143.69283476 619.93349159 143.69223957 618.63750405 143.69162634 C616.08133515 143.69041447 613.52516625 143.68920034 610.96899735 143.68798397 C593.83531382 143.68021044 576.7016331 143.67626804 559.56794834 143.68030071 C558.5657199 143.68053528 558.5657199 143.68053528 557.54324442 143.68077458 C554.15776029 143.68158021 550.77227618 143.68242598 547.38679207 143.68328788 C546.37846606 143.68354451 546.37846606 143.68354451 545.34976984 143.68380633 C543.99038929 143.68415299 542.63100874 143.68450152 541.2716282 143.68485192 C520.12076624 143.69020879 498.96994598 143.6822727 477.8190918 143.66381836 C453.9874516 143.64304873 430.15583701 143.63241593 406.32418483 143.63639385 C393.73084889 143.63829982 381.13755093 143.63587721 368.54422188 143.62167931 C357.82600214 143.60971646 347.10784378 143.60841545 336.38962311 143.62046947 C330.9322762 143.62632326 325.47504129 143.62755552 320.0177021 143.61546707 C264.15404968 143.50033813 213.97428237 149.89286325 174.1484375 193.03515625 Z " fill="#FCFCFC" transform="translate(0,0)"/>
<path d="M0 0 C1.14872086 -0.01606293 2.29744171 -0.03212585 3.48097229 -0.04867554 C8.74952647 -0.09325724 14.0179321 -0.13465066 19.28662109 -0.15722656 C22.05974684 -0.17051604 24.83212799 -0.19827566 27.60498047 -0.23925781 C31.61169612 -0.29846206 35.61762495 -0.31593801 39.62475586 -0.33056641 C40.85428482 -0.35323578 42.08381378 -0.37590515 43.3506012 -0.39926147 C51.09898371 -0.38039964 56.938654 0.75409 63.40209961 5.19287109 C67.78916042 9.90261087 68.49198022 15.16369599 69.46459961 21.31787109 C69.62742432 22.2747583 69.79024902 23.23164551 69.95800781 24.2175293 C71.22613078 31.7722648 72.37706821 39.34886982 73.45117188 46.93359375 C73.90817799 50.13428881 74.37720065 53.11817422 75.40209961 56.19287109 C77.44972395 57.21372051 77.44972395 57.21372051 80.01147461 57.91943359 C80.98431396 58.22502197 81.95715332 58.53061035 82.95947266 58.84545898 C84.01303955 59.16635498 85.06660645 59.48725098 86.15209961 59.81787109 C95.63502426 62.8097413 104.70885546 66.25986718 113.71166992 70.48632812 C118.19678654 72.54190873 118.19678654 72.54190873 123.01147461 73.31396484 C126.80854341 71.5333133 129.79115534 68.90510965 132.96459961 66.19287109 C134.39031039 65.00502383 135.81740578 63.81883657 137.24584961 62.63427734 C137.94838867 62.0492041 138.65092773 61.46413086 139.37475586 60.86132812 C143.91585539 57.12410821 148.61300345 53.60629754 153.40209961 50.19287109 C154.0659668 49.71849609 154.72983398 49.24412109 155.41381836 48.75537109 C158.85785006 46.52642473 162.17887728 45.38972919 166.31892395 45.61790466 C174.01046931 47.74080791 180.74245204 56.21357558 186.23413086 61.68896484 C187.0331633 62.48134048 187.83219574 63.27371613 188.65544128 64.09010315 C190.3293774 65.75398498 192.00067877 67.42052136 193.66943359 69.08959961 C196.21476735 71.63053855 198.77570673 74.15501798 201.33764648 76.67919922 C202.97078606 78.30647337 204.60298058 79.93469666 206.23413086 81.56396484 C206.99458206 82.31004501 207.75503326 83.05612518 208.53852844 83.82481384 C213.64575228 88.97621162 218.3142046 94.06643169 218.47631836 101.67724609 C217.09129742 106.2100419 214.92063224 109.585007 212.21459961 113.44287109 C211.6922876 114.21139404 211.16997559 114.97991699 210.63183594 115.77172852 C207.68066099 120.07062262 204.61433108 124.26612123 201.45678711 128.41552734 C200.49035278 129.69218262 200.49035278 129.69218262 199.50439453 130.99462891 C198.24596235 132.64472664 196.97301115 134.28387033 195.68457031 135.91064453 C195.11053467 136.65991211 194.53649902 137.40917969 193.94506836 138.18115234 C193.42968506 138.83639893 192.91430176 139.49164551 192.38330078 140.16674805 C191.04888097 142.92224693 191.50300901 144.30777557 192.40209961 147.19287109 C193.28746442 149.34953091 193.28746442 149.34953091 194.40600586 151.46630859 C194.81351074 152.28059326 195.22101563 153.09487793 195.64086914 153.93383789 C196.0777002 154.80306885 196.51453125 155.6722998 196.96459961 156.56787109 C210.40209961 183.95183041 210.40209961 183.95183041 210.40209961 193.19287109 C211.39983398 193.21865234 212.39756836 193.24443359 213.42553711 193.27099609 C227.25916115 193.7712635 240.76350314 195.91237605 254.40209961 198.19287109 C254.07209961 199.18287109 253.74209961 200.17287109 253.40209961 201.19287109 C250.92835385 202.00326597 248.60713184 202.60351227 246.07006836 203.13037109 C245.32308182 203.29657959 244.57609528 203.46278809 243.80647278 203.6340332 C241.40338181 204.16606465 238.99682552 204.67990701 236.58959961 205.19287109 C235.00924923 205.5379809 233.4291671 205.88432154 231.84936523 206.23193359 C230.69152023 206.48644287 230.69152023 206.48644287 229.51028442 206.74609375 C228.74626312 206.91415527 227.98224182 207.0822168 227.19506836 207.25537109 C226.05640823 207.50552979 226.05640823 207.50552979 224.89474487 207.76074219 C223.42013055 208.08505929 221.94566803 208.41006753 220.47137451 208.73583984 C218.54591151 209.16110802 216.61978333 209.58336145 214.69360352 210.00537109 C213.62416504 210.25287109 212.55472656 210.50037109 211.45288086 210.75537109 C210.53804932 210.96291016 209.62321777 211.17044922 208.68066406 211.38427734 C206.13991085 212.28591397 204.98929296 213.02192253 203.40209961 215.19287109 C202.56153556 218.30158759 202.69191162 221.06264032 203.40209961 224.19287109 C205.32073161 227.20599543 207.7523131 229.44427976 210.40209961 231.81787109 C211.08602783 232.46667236 211.76995605 233.11547363 212.47460938 233.78393555 C216.55630563 237.62721383 220.73689947 241.37446844 225.17944336 244.79833984 C226.40209961 246.19287109 226.40209961 246.19287109 226.40209961 250.19287109 C225.33123016 251.75872517 225.33123016 251.75872517 223.79846191 253.28425598 C223.22103241 253.8686293 222.64360291 254.45300262 222.04867554 255.05508423 C221.4066922 255.68425751 220.76470886 256.31343079 220.10327148 256.96166992 C219.43337189 257.63375992 218.76347229 258.30584991 218.07327271 258.99830627 C215.84863754 261.22525886 213.61001505 263.43756771 211.37084961 265.64990234 C209.81979691 267.19603074 208.26955557 268.74297347 206.72009277 270.29069519 C203.46415107 273.53898476 200.20185107 276.78069696 196.93432617 280.01733398 C192.76097876 284.15128727 188.59830696 288.295773 184.43975067 292.44460011 C180.4619463 296.41238263 176.47924301 300.37523201 172.49584961 304.33740234 C171.74206528 305.08779093 170.98828094 305.83817951 170.21165466 306.61130714 C168.05576443 308.75550784 165.89649058 310.89623962 163.73608398 313.03588867 C163.11029449 313.65898926 162.484505 314.28208984 161.8397522 314.92407227 C158.06234034 318.65643568 154.1693645 322.20312627 150.13687897 325.65879345 C147.78234386 327.74092548 145.72391151 330.01921994 143.65209961 332.38037109 C138.23622461 338.39632626 132.6269485 344.22171516 126.96459961 350.00537109 C126.08771484 350.92020264 125.21083008 351.83503418 124.30737305 352.77758789 C123.47367188 353.62232666 122.6399707 354.46706543 121.78100586 355.33740234 C121.03407471 356.10415283 120.28714355 356.87090332 119.51757812 357.66088867 C117.40209961 359.19287109 117.40209961 359.19287109 115.35791016 359.14501953 C113.01216394 358.00303848 111.55205143 356.68290787 109.73022461 354.81396484 C108.73442383 353.80366211 108.73442383 353.80366211 107.71850586 352.77294922 C107.0365918 352.06589844 106.35467773 351.35884766 105.65209961 350.63037109 C104.9547168 349.91945313 104.25733398 349.20853516 103.53881836 348.47607422 C101.81963381 346.72156396 100.10784089 344.96043757 98.40209961 343.19287109 C101.84698554 339.68523678 105.40613447 336.39090165 109.08959961 333.13037109 C126.8594497 317.0144248 139.49070904 295.43862918 145.40209961 272.19287109 C145.69987305 271.16419922 145.99764648 270.13552734 146.30444336 269.07568359 C148.51559557 260.25145404 148.68480013 251.63149815 148.71459961 242.56787109 C148.72007812 241.35292969 148.72555664 240.13798828 148.73120117 238.88623047 C148.49634348 208.97021978 137.55078958 181.94602035 118.40209961 159.19287109 C117.4159668 158.02111328 117.4159668 158.02111328 116.40991211 156.82568359 C113.32994053 152.9889204 113.32994053 152.9889204 109.40209961 150.19287109 C109.40209961 149.53287109 109.40209961 148.87287109 109.40209961 148.19287109 C108.83233398 147.93763672 108.26256836 147.68240234 107.67553711 147.41943359 C105.1467915 146.05512754 103.20872689 144.43677364 101.02709961 142.56787109 C94.91516012 137.60641433 88.30444287 133.90297721 81.40209961 130.19287109 C80.4469043 129.65662109 79.49170898 129.12037109 78.50756836 128.56787109 C51.74641974 114.19545001 18.3881597 112.08690672 -10.59790039 120.19287109 C-11.6665332 120.48162109 -12.73516602 120.77037109 -13.83618164 121.06787109 C-43.99484335 130.20933283 -70.70681504 151.19938694 -86.02319336 178.75732422 C-96.61354164 198.95860981 -102.0375531 218.37288384 -101.97290039 241.25537109 C-101.97235657 241.98109314 -101.97181274 242.70681519 -101.97125244 243.45452881 C-101.93132289 255.06444375 -101.18527744 266.08196717 -97.59790039 277.19287109 C-97.39422852 277.82676758 -97.19055664 278.46066406 -96.98071289 279.11376953 C-95.47131868 283.6070125 -93.62515518 287.91426908 -91.59790039 292.19287109 C-91.067854 293.31459717 -91.067854 293.31459717 -90.52709961 294.45898438 C-79.51841156 317.33969549 -64.10361376 333.45036951 -43.59790039 348.19287109 C-44.96415286 351.29368488 -46.48104024 353.26948054 -48.97680664 355.54833984 C-49.64655518 356.16636475 -50.31630371 356.78438965 -51.00634766 357.42114258 C-51.71718506 358.06768799 -52.42802246 358.7142334 -53.16040039 359.38037109 C-54.61967795 360.72830793 -56.07801732 362.07726117 -57.53540039 363.42724609 C-58.23793945 364.07628906 -58.94047852 364.72533203 -59.66430664 365.39404297 C-64.64872942 370.03106659 -69.41088982 374.80869998 -73.87524414 379.94677734 C-78.11633736 384.82140892 -82.5496756 389.50278636 -86.99243164 394.19287109 C-90.14591161 397.53569044 -93.24391958 400.90752906 -96.25415039 404.38037109 C-98.91927767 407.45021399 -101.68358582 410.35524902 -104.59790039 413.19287109 C-107.67009744 416.22311098 -110.60977605 419.28522209 -113.41040039 422.56787109 C-118.27002257 428.17862926 -118.27002257 428.17862926 -121.59790039 430.19287109 C-125.24784854 430.13613615 -127.1017977 428.95187222 -129.64086914 426.50537109 C-130.69941655 425.41114232 -131.74738122 424.30659253 -132.78540039 423.19287109 C-136.31424189 419.20979092 -136.31424189 419.20979092 -140.59790039 416.19287109 C-140.59790039 415.53287109 -140.59790039 414.87287109 -140.59790039 414.19287109 C-141.47973999 413.79322144 -141.47973999 413.79322144 -142.37939453 413.38549805 C-144.64483258 412.16764123 -146.2299264 410.87316001 -148.09399414 409.11083984 C-148.73530273 408.50820313 -149.37661133 407.90556641 -150.03735352 407.28466797 C-150.69670898 406.65625 -151.35606445 406.02783203 -152.03540039 405.38037109 C-152.69088867 404.76355469 -153.34637695 404.14673828 -154.02172852 403.51123047 C-164.34834049 393.76464886 -164.34834049 393.76464886 -167.84790039 389.06787109 C-168.34805664 388.40529297 -168.84821289 387.74271484 -169.36352539 387.06005859 C-171.49920978 383.82949804 -172.19718933 380.45072826 -172.11352539 376.59521484 C-171.07364183 371.75030282 -167.87007854 367.98392751 -164.97241211 364.05908203 C-163.42196878 361.95400408 -161.90185359 359.8287003 -160.38305664 357.70068359 C-158.1805135 354.62324401 -155.97091436 351.55130203 -153.74633789 348.48974609 C-152.97628418 347.41756836 -152.97628418 347.41756836 -152.19067383 346.32373047 C-151.10553535 344.87200014 -149.97021207 343.45677315 -148.79418945 342.07763672 C-147.19563796 340.16591074 -145.78089865 338.38646211 -144.59790039 336.19287109 C-144.82484116 333.06069746 -144.82484116 333.06069746 -146.59790039 330.19287109 C-147.16846081 328.98258119 -147.73459022 327.77019603 -148.29711914 326.55615234 C-148.95906872 325.20549424 -149.62187169 323.85525414 -150.28540039 322.50537109 C-154.40863362 313.95530716 -157.71787 305.18689805 -160.85522461 296.23486328 C-161.71699212 293.86542755 -162.65186476 291.52977714 -163.59790039 289.19287109 C-164.72695801 289.0978833 -165.85601562 289.00289551 -167.01928711 288.9050293 C-171.25190094 288.54345165 -175.48169203 288.15487103 -179.71118164 287.75854492 C-181.53377365 287.59146325 -183.35703222 287.43148088 -185.1809082 287.27905273 C-207.77033113 285.38010617 -207.77033113 285.38010617 -214.03320312 278.65063477 C-222.68495192 266.50220776 -218.64537796 244.77371343 -218.22290039 230.81787109 C-218.19196289 229.51720703 -218.16102539 228.21654297 -218.12915039 226.87646484 C-217.59858705 209.52704368 -217.59858705 209.52704368 -211.59790039 202.19287109 C-202.48621491 195.28100682 -190.08122993 195.05182385 -179.03540039 193.50537109 C-178.09567383 193.37380615 -177.15594727 193.24224121 -176.18774414 193.10668945 C-175.29055664 192.98688721 -174.39336914 192.86708496 -173.46899414 192.74365234 C-172.67420654 192.63706299 -171.87941895 192.53047363 -171.06054688 192.4206543 C-168.22925605 192.15877323 -165.43966026 192.15658017 -162.59790039 192.19287109 C-162.43209473 191.46729004 -162.26628906 190.74170898 -162.09545898 189.99414062 C-160.30294591 182.46026739 -157.98429947 175.29788557 -155.22290039 168.06787109 C-154.84907227 167.06111328 -154.47524414 166.05435547 -154.09008789 165.01708984 C-151.90820632 159.24108144 -149.48604781 153.82204971 -146.43139648 148.45117188 C-145.37802813 145.59714221 -145.69957359 144.06921625 -146.59790039 141.19287109 C-147.95256013 139.03062574 -149.32035927 137.03678863 -150.84790039 135.00537109 C-151.28102539 134.41385254 -151.71415039 133.82233398 -152.16040039 133.21289062 C-153.11215562 131.91325014 -154.06740748 130.61616507 -155.02563477 129.32128906 C-157.31754924 126.21866322 -159.58629317 123.09945424 -161.85083008 119.97680664 C-162.99899113 118.39367289 -164.15058653 116.81302317 -165.3059082 115.23510742 C-165.83539063 114.50702881 -166.36487305 113.7789502 -166.91040039 113.02880859 C-167.3809082 112.38476074 -167.85141602 111.74071289 -168.33618164 111.07714844 C-171.63390608 106.15225733 -172.72170439 102.06758155 -171.59790039 96.19287109 C-170.34735107 94.32054138 -170.34735107 94.32054138 -168.65942383 92.50317383 C-168.02170044 91.81190399 -167.38397705 91.12063416 -166.72692871 90.40841675 C-162.87031271 86.39507943 -158.98428189 82.41642551 -155.05102539 78.47802734 C-154.1580072 77.58168076 -153.26498901 76.68533417 -152.34490967 75.76182556 C-150.47041223 73.88229445 -148.59484007 72.0039107 -146.7175293 70.12719727 C-144.31274901 67.72251951 -141.91497763 65.31097746 -139.5188179 62.89771366 C-137.22153758 60.58667306 -134.9171012 58.28279024 -132.61352539 55.97802734 C-131.75414368 55.11146011 -130.89476196 54.24489288 -130.00933838 53.35206604 C-129.21130798 52.55711227 -128.41327759 51.76215851 -127.59106445 50.94311523 C-126.89047913 50.24110489 -126.1898938 49.53909454 -125.46807861 48.81581116 C-122.11387599 45.90503519 -118.39188885 45.66592207 -114.11352539 45.72802734 C-109.09455143 46.65544645 -105.50044126 50.07889674 -101.59790039 53.19287109 C-98.69792224 55.36989694 -95.78830351 57.53338306 -92.87524414 59.69287109 C-90.46937059 61.49672361 -88.15614935 63.38629836 -85.85180664 65.31787109 C-79.55440452 70.84870835 -79.55440452 70.84870835 -71.87915039 73.43115234 C-69.17305147 72.67116028 -67.03542557 71.59176526 -64.59790039 70.19287109 C-62.64573601 69.26313917 -60.6867962 68.34755914 -58.72290039 67.44287109 C-57.64524414 66.92853516 -56.56758789 66.41419922 -55.45727539 65.88427734 C-46.81082406 61.95046845 -37.60047932 59.19373074 -28.59790039 56.19287109 C-24.902345 46.92002571 -24.24578473 36.16124872 -22.87109375 26.30639648 C-20.51015404 9.54194043 -20.51015404 9.54194043 -14.56274414 4.45068359 C-13.8937207 4.07685547 -13.22469727 3.70302734 -12.53540039 3.31787109 C-11.52799805 2.73392578 -11.52799805 2.73392578 -10.50024414 2.13818359 C-6.8874469 0.34291268 -3.97920861 0.05060222 0 0 Z " fill="#FEFEFE" transform="translate(474.597900390625,224.80712890625)"/>
<path d="M0 0 C4.0445431 7.38568741 0.64753351 16.7959151 -1.546875 24.33984375 C-2.19381234 26.64944999 -2.84027711 28.95918865 -3.48632812 31.26904297 C-3.82704346 32.47115417 -4.16775879 33.67326538 -4.51879883 34.9118042 C-6.28007224 41.1779206 -7.95431083 47.46729217 -9.640625 53.75390625 C-10.33272029 56.31722289 -11.02543089 58.88037348 -11.71875 61.44335938 C-12.7755665 65.35076027 -13.83193164 69.25827231 -14.88476562 73.16674805 C-15.92544454 77.02993267 -16.97041119 80.89194609 -18.015625 84.75390625 C-18.32816223 85.91644424 -18.64069946 87.07898224 -18.96270752 88.27674866 C-24.25839215 107.79658627 -24.25839215 107.79658627 -28.5625 110.625 C-31.375 111.25 -31.375 111.25 -34.5625 110.625 C-37.17920065 108.89808287 -39.49487963 106.98624693 -41.5625 104.625 C-41.5625 103.965 -41.5625 103.305 -41.5625 102.625 C-42.44615234 102.24988281 -42.44615234 102.24988281 -43.34765625 101.8671875 C-45.85559705 100.46061753 -47.18674578 98.96945666 -49 96.75 C-51.62603496 93.63724305 -54.25150776 91.03299436 -57.5625 88.625 C-61.66022657 90.23482115 -64.32735294 93.20105826 -67.3125 96.3125 C-70.44538329 99.55727198 -73.59475151 102.68907986 -77.03515625 105.609375 C-83.0787301 110.83170921 -88.64602732 116.55982492 -94.28149414 122.21362305 C-96.25229488 124.18980114 -98.22840656 126.16055548 -100.20507812 128.13085938 C-101.47427922 129.40072103 -102.74317021 130.67089272 -104.01171875 131.94140625 C-104.59515549 132.52281876 -105.17859222 133.10423126 -105.77970886 133.70326233 C-108.39341158 136.33182574 -110.90216976 138.97657211 -113.24926758 141.84741211 C-115.12859312 144.10399118 -116.87007134 145.90368257 -119.125 147.75 C-122.68029652 150.78500923 -126.01933149 153.99810236 -129.3125 157.3125 C-129.81950439 157.82272705 -130.32650879 158.3329541 -130.84887695 158.85864258 C-132.42198545 160.44556109 -133.99267911 162.03482958 -135.5625 163.625 C-137.64276591 165.73223232 -139.72658366 167.83586235 -141.8125 169.9375 C-142.72515625 170.86175781 -143.6378125 171.78601563 -144.578125 172.73828125 C-146.76075376 174.89739825 -149.03106295 176.91789631 -151.35791016 178.92041016 C-155.98455946 182.93110202 -160.28089785 187.23530968 -164.5859375 191.5859375 C-165.41332428 192.4171109 -166.24071106 193.2482843 -167.09317017 194.10464478 C-169.71040321 196.73400108 -172.32434471 199.36659143 -174.9375 202 C-178.40080199 205.48982135 -181.86735283 208.97636758 -185.3359375 212.4609375 C-186.13172211 213.26502045 -186.92750671 214.06910339 -187.74740601 214.89755249 C-188.48222198 215.63567169 -189.21703796 216.37379089 -189.97412109 217.13427734 C-190.62061615 217.78600922 -191.26711121 218.43774109 -191.93319702 219.10922241 C-194.8656467 221.83734699 -197.40301614 221.97914864 -201.36328125 221.88671875 C-209.1144983 220.96428262 -214.26300694 215.3981776 -219.70703125 210.26953125 C-222.4121204 207.76427084 -225.18867568 205.43307859 -228.0625 203.125 C-232.81989668 199.28664586 -237.32033918 195.22877641 -241.81640625 191.08984375 C-244.48125166 188.69792703 -247.21081825 186.43245116 -250 184.1875 C-253.9948288 180.96549725 -257.80725286 177.61767629 -261.5625 174.125 C-270.95779217 164.15792751 -270.95779217 164.15792751 -282.5625 158.625 C-284.34591929 159.68897131 -284.34591929 159.68897131 -285.91894531 161.4296875 C-286.55350647 162.067854 -287.18806763 162.70602051 -287.84185791 163.36352539 C-288.85599762 164.42108032 -288.85599762 164.42108032 -289.890625 165.5 C-290.5984613 166.21728271 -291.30629761 166.93456543 -292.0355835 167.67358398 C-294.30658496 169.97926438 -296.55994029 172.30131188 -298.8125 174.625 C-301.05401199 176.91672032 -303.29906191 179.20488285 -305.54656982 181.49072266 C-306.94440686 182.91463092 -308.33826468 184.34246087 -309.72735596 185.77490234 C-313.51537115 189.65782128 -317.42276384 193.28802746 -321.53231812 196.82684326 C-325.18819215 200.06489527 -328.60303934 203.54357791 -332.04296875 207.0078125 C-332.81884842 207.78510712 -333.59472809 208.56240173 -334.39411926 209.36325073 C-336.84846156 211.82313896 -339.29929082 214.28649275 -341.75 216.75 C-343.40536545 218.41038908 -345.0609624 220.07054741 -346.71679688 221.73046875 C-349.75167782 224.77347831 -352.78524378 227.81778487 -355.81713867 230.86376953 C-358.72823654 233.78823019 -361.64337805 236.70855032 -364.5625 239.625 C-365.2946875 240.35847656 -366.026875 241.09195313 -366.78125 241.84765625 C-369.1931614 244.25618013 -371.61135418 246.65810088 -374.03125 249.05859375 C-375.70839793 250.72649755 -377.38547948 252.3944681 -379.0625 254.0625 C-379.90425781 254.89587891 -380.74601562 255.72925781 -381.61328125 256.58789062 C-386.58664597 261.50304184 -386.58664597 261.50304184 -391.15625 266.78515625 C-393.05985213 269.0317776 -394.77549558 270.73375056 -396.99609375 272.61328125 C-400.94517026 275.98245584 -404.58435038 279.59656544 -408.22265625 283.29296875 C-408.82065033 283.89891876 -409.41864441 284.50486877 -410.03475952 285.12918091 C-412.53207523 287.66265423 -415.02626635 290.19904022 -417.51098633 292.74487305 C-419.34552089 294.62195446 -421.18956224 296.48926865 -423.03515625 298.35546875 C-423.86201683 299.2102607 -423.86201683 299.2102607 -424.70558167 300.08232117 C-428.80186226 304.20508792 -433.14609957 307.80889117 -438.93359375 309.19140625 C-445.0740737 309.17979854 -448.75559975 307.34520794 -453.5625 303.625 C-454.20574219 303.15578125 -454.84898437 302.6865625 -455.51171875 302.203125 C-460.35926668 298.42264737 -462.99734312 294.66587173 -463.875 288.390625 C-464.20704778 282.20623511 -462.19558688 278.58987156 -458.13195038 274.01419258 C-456.44359464 272.25418038 -454.7256978 270.52928844 -452.99316406 268.81274414 C-452.3421875 268.15986923 -451.69121094 267.50699432 -451.02050781 266.83433533 C-448.87789438 264.68803263 -446.72819035 262.54899187 -444.578125 260.41015625 C-443.07806499 258.91128966 -441.5783759 257.41205177 -440.07904053 255.91246033 C-436.93826604 252.77324776 -433.79416863 249.63741535 -430.64746094 246.50415039 C-426.63003217 242.50367408 -422.61917983 238.49668438 -418.61059952 234.48734379 C-415.51380713 231.39082449 -412.41440608 228.29692742 -409.31414032 225.20388603 C-407.83529455 223.7282053 -406.35703858 222.25193326 -404.87940216 220.77504158 C-402.8052315 218.70305972 -400.72778772 216.63441523 -398.64941406 214.56665039 C-397.74820831 213.66476486 -397.74820831 213.66476486 -396.82879639 212.74465942 C-393.83953031 209.77747446 -390.7951479 206.92558444 -387.60740662 204.17189026 C-383.47722468 200.59652083 -379.60830911 196.80487669 -375.75708008 192.93310547 C-374.65546791 191.83171234 -374.65546791 191.83171234 -373.53160095 190.70806885 C-371.1293634 188.30514047 -368.73067866 185.89869916 -366.33203125 183.4921875 C-364.65172404 181.81001222 -362.97119369 180.1280598 -361.29045105 178.44631958 C-356.88271854 174.0347847 -352.47799603 169.6202565 -348.07391357 165.20507812 C-343.59340542 160.71433611 -339.11006492 156.22642378 -334.62695312 151.73828125 C-327.38899716 144.49155207 -320.15277665 137.24309542 -312.91879272 129.99240112 C-312.28400497 129.35616821 -311.64921722 128.7199353 -310.99519348 128.06442261 C-310.40571269 127.47358163 -309.8162319 126.88274065 -309.20888805 126.2739954 C-307.7062717 124.76899939 -306.20206102 123.26561881 -304.69729614 121.76277161 C-302.99334937 120.05644989 -301.31628203 118.33434077 -299.66015625 116.58203125 C-298.64853177 115.53376319 -297.63681206 114.48558701 -296.625 113.4375 C-296.12548828 112.90447266 -295.62597656 112.37144531 -295.11132812 111.82226562 C-291.27630001 107.88826904 -287.89108647 105.79142932 -282.21875 105.5078125 C-281.5071875 105.58773437 -280.795625 105.66765625 -280.0625 105.75 C-279.3509375 105.81445312 -278.639375 105.87890625 -277.90625 105.9453125 C-272.41586874 107.53752307 -268.28669572 111.62080017 -264.1875 115.4375 C-261.00939821 118.37146189 -257.83181575 121.29293841 -254.5625 124.125 C-250.38520917 127.75444941 -246.30712761 131.4897902 -242.21875 135.21875 C-239.39179239 137.77964101 -236.52553452 140.28945477 -233.64453125 142.7890625 C-231.14706643 144.99132979 -228.701223 147.24640035 -226.25 149.5 C-221.66206658 153.6923119 -216.93326792 157.65094134 -212.0703125 161.51953125 C-209.5625 163.625 -209.5625 163.625 -207.0546875 166.44921875 C-204.82869668 168.87552236 -204.82869668 168.87552236 -202.29101562 168.61865234 C-198.50330048 167.23926789 -196.16134372 164.73823461 -193.4140625 161.90234375 C-192.83844574 161.32343887 -192.26282898 160.744534 -191.66976929 160.14808655 C-189.83279592 158.29539222 -188.01040561 156.42902617 -186.1875 154.5625 C-184.96962025 153.33312165 -183.75087836 152.10459675 -182.53125 150.87695312 C-175.58015486 143.87292378 -175.58015486 143.87292378 -169.0234375 136.50390625 C-166.1804883 133.16293035 -163.01980674 130.24161464 -159.77319336 127.3034668 C-152.20630323 120.382523 -144.965501 113.1552282 -137.73046875 105.890625 C-136.35921458 104.51749976 -134.98773502 103.14459956 -133.61604309 101.77191162 C-130.05146404 98.20356155 -126.48990122 94.63221645 -122.92901611 91.06018066 C-119.27680457 87.39763682 -115.6216683 83.7380142 -111.96679688 80.078125 C-104.82920938 72.92989602 -97.69481348 65.778491 -90.5625 58.625 C-91.99380766 55.62843369 -93.32682521 53.65887788 -95.79296875 51.41796875 C-96.43169922 50.83080078 -97.07042969 50.24363281 -97.72851562 49.63867188 C-98.39560547 49.03603516 -99.06269531 48.43339844 -99.75 47.8125 C-102.36413584 45.42726361 -104.96771092 43.03126626 -107.5625 40.625 C-108.23079834 40.0163208 -108.89909668 39.4076416 -109.58764648 38.78051758 C-110.53812866 37.88369263 -110.53812866 37.88369263 -111.5078125 36.96875 C-112.36463623 36.17307617 -112.36463623 36.17307617 -113.23876953 35.36132812 C-115.29961346 32.65813336 -115.27559929 30.04614621 -115.19921875 26.73828125 C-114.30807556 23.7805606 -112.92249631 22.61041309 -110.5625 20.625 C-107.61865234 19.54760742 -107.61865234 19.54760742 -104.1484375 18.73046875 C-103.19760033 18.50124725 -103.19760033 18.50124725 -102.22755432 18.26739502 C-100.13407037 17.7675501 -98.03628162 17.28956974 -95.9375 16.8125 C-94.45499694 16.46496681 -92.97265906 16.11672837 -91.49047852 15.76782227 C-79.80004467 13.04032838 -68.05430713 10.57612749 -56.28491211 8.21533203 C-49.04673321 6.76241195 -41.82635548 5.25955346 -34.625 3.6328125 C-33.89632217 3.46908646 -33.16764435 3.30536041 -32.41688538 3.13667297 C-28.94235742 2.35520172 -25.47043651 1.56438796 -22.00170898 0.75756836 C-5.51920191 -2.96152298 -5.51920191 -2.96152298 0 0 Z " fill="#165CA1" transform="translate(791.5625,415.375)"/>
<path d="M0 0 C0.77470642 -0.01606293 1.54941284 -0.03212585 2.34759521 -0.04867554 C5.88275871 -0.09354238 9.4177428 -0.13418867 12.953125 -0.15722656 C14.8113255 -0.17376552 16.66946292 -0.20102847 18.52734375 -0.23925781 C21.22201153 -0.29433901 23.91519485 -0.31594706 26.61035156 -0.33056641 C27.84202057 -0.36457047 27.84202057 -0.36457047 29.09857178 -0.39926147 C34.25900326 -0.380581 37.7722928 0.68743596 42.19049072 3.33627319 C47.21888833 8.49274127 48.59465936 14.48862667 48.50891113 21.47279358 C48.5151511 22.26689918 48.52139106 23.06100477 48.52782011 23.87917417 C48.54367527 26.51928656 48.53117575 29.15846604 48.51855469 31.79858398 C48.5239791 33.69971756 48.53110355 35.60084693 48.53979492 37.50196838 C48.55799195 42.65066613 48.55097598 47.79904238 48.53827858 52.94774556 C48.52813366 58.3416728 48.53754827 63.73557299 48.54382324 69.12950134 C48.55109466 78.18558685 48.54152451 87.24154175 48.52246094 96.29760742 C48.50068665 106.76212336 48.50774972 117.22632761 48.52976656 127.69083601 C48.54792707 136.68299145 48.55047587 145.67505315 48.54001188 154.66722101 C48.53378141 160.03462389 48.53292927 165.40188033 48.54615784 170.76927376 C48.55772535 175.81485884 48.54967395 180.86004254 48.52658081 185.90558434 C48.52129885 187.7554724 48.52279872 189.60539434 48.53163147 191.45526886 C48.54259084 193.98394361 48.52881955 196.51133866 48.50891113 199.03993225 C48.51783402 199.76892937 48.52675691 200.49792649 48.53595018 201.24901444 C48.45259668 206.72107637 46.97509301 209.76277294 44.00097656 214.19287109 C37.47940409 220.23790752 26.21613213 218.7211889 17.98901367 218.60449219 C15.30967338 218.56781904 12.63171454 218.56347475 9.95214844 218.56396484 C8.23533969 218.55413729 6.51854023 218.54248187 4.80175781 218.52880859 C4.00788162 218.52658295 3.21400543 218.5243573 2.39607239 218.52206421 C-4.57634143 218.4036493 -9.78734376 217.11501301 -14.99902344 212.19287109 C-17.53905223 208.49136213 -17.28428077 204.59583395 -17.26644897 200.27334595 C-17.27098009 199.46970183 -17.2755112 198.66605771 -17.28017962 197.83806074 C-17.29285191 195.14198224 -17.29120143 192.44610501 -17.28955078 189.75 C-17.29553425 187.81828043 -17.30233938 185.88656326 -17.30990601 183.95484924 C-17.32759133 178.70483792 -17.33226244 173.45489177 -17.33353758 168.20485353 C-17.3354357 163.82357765 -17.34279221 159.44231699 -17.34988177 155.06104696 C-17.36617283 144.7250977 -17.37105005 134.38918328 -17.36962891 124.05322266 C-17.36842716 113.38770703 -17.38953392 102.72239366 -17.42111623 92.05692923 C-17.44725857 82.90268075 -17.45799706 73.74849842 -17.45671809 64.59421289 C-17.45620787 59.1255987 -17.46192424 53.65716423 -17.48307419 48.18858719 C-17.50242218 43.04542098 -17.50260453 37.90260656 -17.48804092 32.75942802 C-17.48594748 30.8720225 -17.49068551 28.98459515 -17.50276184 27.0972271 C-17.51818474 24.51985792 -17.50892626 21.94370624 -17.49349976 19.36636353 C-17.50378688 18.62005224 -17.51407401 17.87374095 -17.52467287 17.10481417 C-17.45714473 11.99696707 -16.18573743 9.14178734 -12.99902344 5.19287109 C-8.79831836 1.3072189 -5.62593647 0.10677924 0 0 Z " fill="#165CA2" transform="translate(706.9990234375,555.80712890625)"/>
<path d="M0 0 C0.97751724 -0.00524185 1.95503448 -0.0104837 2.96217346 -0.0158844 C5.02563529 -0.02229621 7.08913372 -0.02097851 9.15258789 -0.01245117 C12.30226017 -0.00394446 15.45011627 -0.03270966 18.59960938 -0.06445312 C20.60807238 -0.06606542 22.61653857 -0.06548707 24.625 -0.0625 C26.03150063 -0.07935097 26.03150063 -0.07935097 27.46641541 -0.09654236 C33.08999266 -0.03688841 36.52744802 0.52432544 40.87890625 4.43359375 C45.5334688 9.83594492 45.45113291 14.41288817 45.39648438 21.20898438 C45.40349365 22.28286911 45.41050293 23.35675385 45.41772461 24.46318054 C45.43530009 28.00566624 45.4236827 31.54735021 45.41015625 35.08984375 C45.41285127 37.55554355 45.41673378 40.02124231 45.42175293 42.48693848 C45.4276474 47.65171437 45.41908621 52.81621335 45.40039062 57.98095703 C45.37760163 64.5988189 45.39072491 71.21603187 45.41468048 77.83386993 C45.4291395 82.92454918 45.42453187 88.01507477 45.41416931 93.10575867 C45.41150234 95.54579241 45.4147707 97.98584013 45.42408752 100.42585754 C45.43425428 103.83701495 45.41874859 107.24712375 45.39648438 110.65820312 C45.4045813 111.66513718 45.41267822 112.67207123 45.42102051 113.70951843 C45.34975538 119.60788489 44.7559756 122.91332396 40.87890625 127.43359375 C37.17769909 130.78781274 33.75374353 131.55150412 28.84814453 131.57885742 C28.06698273 131.58523727 27.28582092 131.59161713 26.48098755 131.59819031 C25.64550385 131.59930313 24.81002014 131.60041595 23.94921875 131.6015625 C23.08126678 131.6048909 22.21331482 131.6082193 21.31906128 131.61164856 C19.48501108 131.61670498 17.6509517 131.61905728 15.81689453 131.61889648 C13.02100343 131.6210804 10.2255087 131.63924256 7.4296875 131.65820312 C5.64453259 131.66113788 3.85937582 131.66312213 2.07421875 131.6640625 C1.24278351 131.67124802 0.41134827 131.67843353 -0.44528198 131.68583679 C-6.56119728 131.66194191 -11.1935473 131.14696837 -15.93359375 126.93359375 C-18.79964548 123.65810606 -19.24628564 122.17976692 -19.26826477 117.94354248 C-19.27542007 116.9986647 -19.28257538 116.05378693 -19.28994751 115.08027649 C-19.29263641 114.04025986 -19.29532532 113.00024323 -19.2980957 111.92871094 C-19.3046669 110.83590317 -19.3112381 109.7430954 -19.31800842 108.61717224 C-19.33777467 104.98827044 -19.34941151 101.35941009 -19.359375 97.73046875 C-19.36345053 96.49311226 -19.36752605 95.25575577 -19.37172508 93.98090363 C-19.39044591 88.10760548 -19.40500823 82.23432057 -19.41333705 76.36099982 C-19.42310414 69.58551164 -19.44940856 62.81035061 -19.48983794 56.03497767 C-19.52366679 50.16382716 -19.53548461 44.29278615 -19.53954124 38.42154694 C-19.5444177 35.92566968 -19.5560616 33.42979618 -19.57457924 30.93398285 C-19.59888355 27.44107433 -19.59802106 23.94902159 -19.59106445 20.45605469 C-19.60387451 19.42413498 -19.61668457 18.39221527 -19.62988281 17.32902527 C-19.58657682 11.36583056 -19.06901142 7.98905304 -15.12109375 3.43359375 C-10.63386974 -0.48244436 -5.66042858 -0.01768344 0 0 Z " fill="#165CA1" transform="translate(487.12109375,642.56640625)"/>
<path d="M0 0 C1.44224945 -0.02409439 1.44224945 -0.02409439 2.91363525 -0.04867554 C7.31790487 -0.09312916 11.72202327 -0.13419924 16.12646484 -0.15722656 C18.44850696 -0.17377781 20.7704983 -0.20105657 23.09228516 -0.23925781 C26.44037305 -0.29406637 29.78726588 -0.31590847 33.13574219 -0.33056641 C34.17031555 -0.35323578 35.20488892 -0.37590515 36.27081299 -0.39926147 C44.32750449 -0.37568928 44.32750449 -0.37568928 47.94726562 2.47558594 C51.08838522 5.99842563 52.61683765 8.53656225 52.6308136 13.27804565 C52.63789841 14.08263214 52.64498322 14.88721863 52.65228271 15.71618652 C52.6498053 16.59005005 52.64732788 17.46391357 52.64477539 18.36425781 C52.64988632 19.29154694 52.65499725 20.21883606 52.66026306 21.17422485 C52.67416597 24.24040172 52.67320162 27.30635395 52.67089844 30.37255859 C52.67478525 32.50481246 52.67911989 34.63706554 52.68388367 36.76931763 C52.69134758 41.23979196 52.69105353 45.71018732 52.68579102 50.18066406 C52.67999906 55.90616659 52.6969201 61.63134535 52.72013569 67.35679436 C52.73487711 71.76117845 52.73574411 76.16548467 52.73262596 80.56988907 C52.73313906 82.6805803 52.73837466 84.7912759 52.74843788 86.90194321 C52.76079137 89.8557403 52.75401669 92.80890809 52.74243164 95.76269531 C52.75007538 96.63251038 52.75771912 97.50232544 52.76559448 98.39849854 C52.72219136 103.412011 52.13272626 106.83974388 49.37011719 111.19287109 C45.82485887 114.40576145 42.64468426 115.30430408 37.93383789 115.41748047 C36.5914782 115.45125793 36.5914782 115.45125793 35.22200012 115.48571777 C31.12473346 115.55699502 27.02764171 115.61425364 22.92993164 115.65283203 C20.77378093 115.67941715 18.61775687 115.72031803 16.4621582 115.77587891 C13.34371864 115.85526867 10.22770233 115.88818405 7.10839844 115.91162109 C6.15290604 115.94461304 5.19741364 115.97760498 4.21296692 116.01159668 C-2.24358772 115.99246118 -5.50105274 114.46236545 -10.15974426 109.99182129 C-13.48362629 105.92451878 -12.80583848 101.03630639 -12.83862305 96.05908203 C-12.84840683 95.12379166 -12.85819061 94.18850128 -12.86827087 93.22486877 C-12.89821645 90.12567569 -12.91960782 87.02652572 -12.93847656 83.92724609 C-12.94504839 82.86857582 -12.95162022 81.80990555 -12.95839119 80.71915436 C-12.99098087 75.11551754 -13.01543292 69.51189971 -13.03491211 63.90820312 C-13.05272764 59.27152855 -13.08755309 54.63546185 -13.13745117 49.99902344 C-13.19763966 44.39988069 -13.22838607 38.80130175 -13.23808479 33.20185089 C-13.24664258 31.06959728 -13.26546856 28.93735886 -13.29482841 26.80529022 C-13.33375587 23.8176056 -13.33477575 20.83211647 -13.3269043 17.84423828 C-13.34690491 16.96709671 -13.36690552 16.08995514 -13.38751221 15.18623352 C-13.32053433 9.5100935 -12.04791198 6.59338143 -8.11319065 2.48247147 C-5.41732973 0.1386672 -3.48143459 0.05280163 0 0 Z " fill="#165BA1" transform="translate(591.6298828125,658.80712890625)"/>
<path d="M0 0 C0.99 0.33 1.98 0.66 3 1 C-0.96 4.96 -4.92 8.92 -9 13 C-9.99 12.67 -10.98 12.34 -12 12 C-8.04 8.04 -4.08 4.08 0 0 Z " fill="#105299" transform="translate(446,578)"/>
<path d="M0 0 C0.66 0.33 1.32 0.66 2 1 C1.25556641 1.72703125 1.25556641 1.72703125 0.49609375 2.46875 C-3.72730125 6.63604677 -7.73405584 10.8932617 -11.5546875 15.43359375 C-13 17 -13 17 -15 18 C-11.76869896 10.87213005 -5.53174141 5.39682089 0 0 Z " fill="#6DBCFE" transform="translate(413,372)"/>
<path d="M0 0 C0.66 0 1.32 0 2 0 C0.63107063 3.09703328 -0.92117359 5.11761608 -3.375 7.4375 C-6.16145273 10.13669429 -8.65233381 12.90108063 -11 16 C-11.66 15.67 -12.32 15.34 -13 15 C-12.22914063 14.16855469 -11.45828125 13.33710937 -10.6640625 12.48046875 C-9.6509335 11.38291233 -8.63791863 10.28525056 -7.625 9.1875 C-7.11710937 8.64029297 -6.60921875 8.09308594 -6.0859375 7.52929688 C-3.84783697 5.09977985 -1.83620888 2.75431332 0 0 Z " fill="#6DBBFD" transform="translate(391,614)"/>
<path d="M0 0 C0 0.33 0 0.66 0 1 C-1.58941406 1.30744141 -1.58941406 1.30744141 -3.2109375 1.62109375 C-4.59898822 1.89307666 -5.98700744 2.16522044 -7.375 2.4375 C-8.42300781 2.63956055 -8.42300781 2.63956055 -9.4921875 2.84570312 C-13.35628734 3.5772422 -13.35628734 3.5772422 -17 5 C-17.99 4.34 -18.98 3.68 -20 3 C-13.19925959 1.09579269 -7.08076251 -0.40850553 0 0 Z " fill="#6BBAFE" transform="translate(265,147)"/>
<path d="M0 0 C0 3 0 3 -1.75 5.04296875 C-2.4925 5.75066406 -3.235 6.45835937 -4 7.1875 C-4.7425 7.90292969 -5.485 8.61835937 -6.25 9.35546875 C-7.11625 10.16951172 -7.11625 10.16951172 -8 11 C-8.66 10.67 -9.32 10.34 -10 10 C-6.92118304 6.12948725 -3.99926986 2.97088618 0 0 Z " fill="#124F98" transform="translate(492,532)"/>
<path d="M0 0 C0.66 0.66 1.32 1.32 2 2 C-0.31 4.31 -2.62 6.62 -5 9 C-5.66 8.34 -6.32 7.68 -7 7 C-4.69 4.69 -2.38 2.38 0 0 Z " fill="#0D4E97" transform="translate(429,595)"/>
<path d="M0 0 C0 3 0 3 -1.53125 4.60546875 C-2.1809375 5.12753906 -2.830625 5.64960937 -3.5 6.1875 C-4.1496875 6.71730469 -4.799375 7.24710938 -5.46875 7.79296875 C-5.9740625 8.19128906 -6.479375 8.58960938 -7 9 C-6.19095897 4.20719998 -3.74015409 2.86479887 0 0 Z " fill="#105099" transform="translate(406,618)"/>
<path d="M0 0 C0.66 0.33 1.32 0.66 2 1 C-0.64 2.98 -3.28 4.96 -6 7 C-6.33 6.01 -6.66 5.02 -7 4 C-1.7265625 0.77734375 -1.7265625 0.77734375 0 0 Z " fill="#71BDFE" transform="translate(208,165)"/>
<path d="M0 0 C3.36720387 1.39332574 4.9859524 2.9789286 7 6 C3.75728494 5.4409112 2.06942576 4.5867822 0 2 C0 1.34 0 0.68 0 0 Z " fill="#68BBF4" transform="translate(583,579)"/>
</svg>
